<?xml version="1.0" standalone="no"?>
<!DOCTYPE svg PUBLIC "-//W3C//DTD SVG 20010904//EN"
 "http://www.w3.org/TR/2001/REC-SVG-20010904/DTD/svg10.dtd">
<svg version="1.0" xmlns="http://www.w3.org/2000/svg"
 width="400.000000pt" height="700.000000pt" viewBox="0 0 400.000000 700.000000"
 preserveAspectRatio="xMidYMid meet">

<g transform="translate(0.000000,700.000000) scale(0.100000,-0.100000)"
fill="#000000" stroke="none">
<path d="M2246 6880 c-39 -12 -64 -37 -91 -90 -32 -65 -42 -115 -60 -295 -16
-170 -21 -202 -36 -252 l-10 -31 -47 26 c-39 22 -61 27 -128 29 -45 1 -99 -3
-120 -8 -59 -16 -138 -57 -181 -94 -36 -31 -41 -41 -61 -132 -48 -218 -95
-549 -121 -868 -6 -66 -15 -174 -21 -240 -5 -66 -15 -199 -20 -295 -6 -96 -13
-186 -16 -198 l-5 -24 -25 26 c-83 82 -252 126 -384 100 -41 -9 -76 -62 -125
-188 -78 -205 -103 -369 -130 -861 -26 -458 -42 -567 -126 -832 -59 -189 -78
-289 -83 -443 -9 -252 41 -463 160 -675 25 -44 104 -163 175 -265 163 -231
190 -273 250 -385 90 -168 118 -270 150 -535 14 -120 29 -157 71 -174 63 -27
78 4 54 119 -27 131 -17 139 44 35 39 -66 65 -86 76 -57 6 18 -57 172 -113
275 -53 97 -148 240 -314 473 -340 477 -446 725 -456 1074 -6 179 7 294 71
615 74 373 88 482 106 845 10 204 13 243 31 400 11 94 59 301 80 349 12 25 14
26 20 9 4 -10 8 -74 8 -143 1 -69 6 -132 11 -140 8 -12 36 -15 156 -15 188 0
178 -10 170 180 -3 77 -9 150 -12 162 -7 26 -64 46 -174 64 -36 5 -74 12 -85
16 l-20 6 20 8 c11 4 50 8 86 8 148 2 228 -97 259 -318 16 -116 12 -418 -10
-756 -31 -472 -26 -670 20 -818 17 -55 76 -156 84 -145 2 1 -5 50 -15 108 -63
373 -49 936 51 2055 16 182 34 409 40 505 23 375 54 641 96 804 25 98 88 219
135 260 47 40 89 51 155 42 38 -5 124 -40 124 -50 0 -2 -20 1 -44 6 -28 6 -64
6 -98 -1 -91 -17 -106 -26 -120 -73 -13 -46 -18 -241 -6 -271 7 -16 22 -18
158 -16 83 1 153 -1 156 -4 3 -3 -3 -135 -15 -294 -11 -158 -27 -405 -36 -548
-8 -143 -17 -294 -20 -335 -2 -41 -7 -129 -10 -195 -3 -66 -8 -154 -10 -195
-3 -41 -7 -151 -10 -245 -3 -93 -7 -215 -10 -270 -5 -97 -4 -99 11 -66 49 109
80 322 94 638 15 385 20 468 35 658 15 197 18 243 40 635 31 551 70 869 138
1137 l23 88 49 17 c84 28 198 13 268 -34 34 -24 35 -41 1 -28 -50 19 -135 7
-216 -31 -26 -11 -28 -17 -29 -78 -3 -117 1 -185 12 -233 l11 -47 91 -3 c109
-4 166 6 187 30 27 32 12 -1164 -17 -1326 -3 -21 -10 -31 -18 -28 -33 12 -178
28 -210 22 -33 -6 -65 -29 -65 -45 0 -4 21 -4 48 0 59 9 179 4 213 -9 24 -10
26 -16 33 -96 3 -48 6 -303 6 -569 0 -444 8 -656 30 -762 7 -37 8 -37 10 -10
1 17 3 43 5 58 11 84 25 698 27 1157 2 795 20 1225 66 1575 l18 130 81 -1 c52
0 87 -5 97 -13 26 -22 19 -31 -24 -31 -22 0 -57 -7 -78 -16 l-39 -15 -6 -102
c-4 -56 -9 -129 -12 -162 -3 -33 -2 -65 2 -72 9 -12 172 -24 179 -12 2 4 -17
7 -42 7 -36 -1 -51 4 -72 26 -25 24 -27 33 -27 104 0 87 28 160 72 190 25 16
26 15 50 -13 34 -41 71 -125 89 -202 49 -212 65 -712 43 -1363 -18 -546 -16
-986 5 -1201 26 -255 34 -254 35 1 1 213 14 675 26 915 11 238 26 809 21 834
-5 25 -9 144 -7 204 2 45 59 97 107 97 35 0 36 -1 21 -18 -32 -35 -48 -104
-50 -212 l-2 -105 76 3 c54 3 78 0 86 -10 6 -7 13 -58 16 -113 38 -637 59
-989 66 -1130 15 -281 6 -1231 -13 -1425 -24 -246 -44 -504 -61 -800 -43 -761
-81 -1067 -170 -1390 -46 -164 -70 -340 -48 -340 5 0 28 60 51 133 60 192 83
300 137 642 4 26 23 198 65 605 15 142 28 258 50 435 78 640 98 998 65 1175
-25 137 -34 331 -40 905 -7 757 -15 953 -51 1210 -17 128 -57 324 -82 409 -24
81 -45 94 -159 102 l-91 7 -6 81 c-3 45 -8 144 -12 221 -13 308 -66 449 -187
500 -41 17 -134 23 -184 11 l-33 -8 0 52 c0 28 -7 80 -16 115 -15 60 -20 67
-65 95 -77 47 -164 73 -259 76 -47 2 -98 -1 -114 -6z m280 -180 c68 -43 100
-180 61 -271 l-15 -36 -103 5 c-57 2 -108 8 -114 14 -10 9 -15 140 -8 224 4
46 8 53 36 67 45 22 103 21 143 -3z m-600 -615 c29 -19 63 -87 64 -127 0 -39
-29 -107 -51 -118 -10 -6 -64 -10 -120 -10 l-101 0 4 116 c4 109 6 117 29 135
50 39 119 41 175 4z m1417 -505 c28 -23 42 -59 51 -137 6 -44 4 -52 -11 -56
-24 -7 -97 -19 -103 -18 -18 4 -29 167 -15 212 8 25 46 24 78 -1z m-2231
-1224 l35 -17 8 -92 c9 -111 7 -169 -6 -182 -12 -12 -200 -19 -216 -8 -7 5
-14 61 -19 155 l-7 148 24 10 c33 14 139 6 181 -14z"/>
<path d="M2371 6131 c-20 -13 -22 -63 -2 -56 9 4 46 10 84 15 94 12 103 24 30
41 -49 11 -94 11 -112 0z"/>
<path d="M1710 5590 c-8 -16 -6 -22 14 -35 13 -9 40 -19 59 -22 30 -5 43 0 79
28 l42 34 -29 6 c-17 4 -58 7 -92 8 -52 1 -64 -2 -73 -19z"/>
<path d="M2341 4970 c-35 -5 -61 -16 -75 -30 -20 -21 -20 -22 -1 -17 11 3 45
9 75 12 54 7 120 29 120 39 0 8 -51 6 -119 -4z"/>
<path d="M2793 4884 c-28 -14 -49 -41 -40 -51 2 -2 23 3 45 11 38 14 58 7 32
-9 -18 -11 0 -25 31 -25 60 0 119 40 119 79 0 18 -150 13 -187 -5z"/>
<path d="M1697 4873 c-4 -3 -7 -12 -7 -20 0 -19 133 -18 149 1 9 11 4 15 -26
20 -50 8 -108 8 -116 -1z"/>
<path d="M1644 4811 c-51 -22 -32 -29 63 -24 54 3 100 7 102 9 21 18 -127 31
-165 15z"/>
<path d="M1706 4750 c-69 -12 -79 -28 -14 -23 94 7 139 14 134 22 -6 10 -62
10 -120 1z"/>
<path d="M3350 4280 c0 -5 -18 -19 -40 -30 -38 -20 -53 -51 -31 -64 19 -12 91
-9 106 4 16 13 16 15 0 26 -15 11 -15 13 0 22 16 8 16 11 -1 31 -20 22 -34 27
-34 11z"/>
<path d="M3290 3963 c0 -16 12 -53 27 -83 l27 -55 4 44 c4 54 -3 84 -24 105
-23 23 -34 20 -34 -11z"/>
<path d="M927 3456 c-9 -10 -17 -20 -17 -23 0 -11 181 4 193 16 8 8 4 11 -15
11 -14 0 -52 3 -85 6 -48 5 -62 3 -76 -10z"/>
<path d="M2227 3148 c-10 -123 -8 -194 5 -223 6 -14 14 -25 17 -25 8 0 16 110
16 217 0 62 -4 86 -16 98 -15 15 -16 9 -22 -67z"/>
<path d="M1562 3148 c-26 -150 -22 -185 16 -145 30 32 52 90 52 136 0 42 -19
69 -21 29 -1 -19 -3 -17 -11 10 -6 17 -14 32 -18 32 -4 0 -13 -28 -18 -62z"/>
<path d="M2830 2894 c0 -17 -7 -53 -15 -80 -17 -57 -19 -100 -5 -109 6 -3 10
1 10 10 0 8 9 41 20 72 24 68 25 93 5 119 -14 18 -14 17 -15 -12z"/>
<path d="M3271 2878 c-14 -39 -14 -125 -1 -133 6 -3 10 -1 10 6 0 7 14 34 31
60 37 58 36 91 -3 95 -22 2 -28 -3 -37 -28z"/>
<path d="M3285 1943 c-8 -19 -25 -305 -19 -312 8 -9 44 225 44 289 0 42 -13
53 -25 23z"/>
<path d="M3171 1149 c-23 -51 -41 -151 -41 -226 0 -82 16 -70 23 17 4 43 16
116 27 161 24 92 20 113 -9 48z"/>
</g>
</svg>
