<?xml version="1.0" standalone="no"?>
<!DOCTYPE svg PUBLIC "-//W3C//DTD SVG 20010904//EN"
 "http://www.w3.org/TR/2001/REC-SVG-20010904/DTD/svg10.dtd">
<svg version="1.0" xmlns="http://www.w3.org/2000/svg"
 width="400.000000pt" height="554.000000pt" viewBox="0 0 400.000000 554.000000"
 preserveAspectRatio="xMidYMid meet">

<g transform="translate(0.000000,554.000000) scale(0.100000,-0.100000)"
fill="#000000" stroke="none">
<path d="M1630 5405 c-147 -63 -202 -82 -310 -104 -146 -31 -224 -58 -253 -87
-14 -14 -39 -60 -57 -104 -39 -98 -78 -139 -180 -190 -87 -44 -139 -85 -169
-134 -11 -18 -41 -95 -67 -172 -50 -153 -74 -199 -163 -322 -33 -46 -65 -100
-72 -119 -17 -54 -6 -306 20 -423 49 -226 74 -286 166 -396 41 -48 84 -108 95
-131 68 -144 85 -398 50 -738 -31 -299 -33 -587 -7 -677 30 -100 75 -187 177
-343 177 -270 188 -314 154 -596 -10 -85 -19 -183 -19 -219 l0 -64 65 -18
c117 -31 105 -61 108 275 5 434 4 437 -220 922 -59 127 -105 252 -123 330 -29
130 -23 291 15 439 21 81 79 226 90 226 5 0 42 -94 91 -233 7 -20 16 -37 20
-37 17 0 -4 112 -41 220 -47 141 -64 229 -55 297 3 28 6 89 6 135 1 106 -22
176 -104 323 -113 202 -194 395 -232 553 -41 168 14 301 165 404 16 11 20 17
10 17 -27 1 -109 -58 -141 -101 -30 -40 -31 -41 -25 -13 25 102 116 214 213
261 29 15 78 28 112 31 52 5 68 2 118 -22 81 -40 177 -140 331 -346 198 -265
305 -363 751 -685 68 -49 143 -106 166 -126 24 -21 48 -38 54 -38 25 0 7 28
-52 85 -114 108 -108 128 44 149 105 15 139 28 158 58 13 20 12 20 -136 17
l-148 -4 -3 49 c-2 27 2 62 9 77 l11 29 168 0 c254 0 368 21 461 86 33 22 105
112 96 120 -1 1 -47 -20 -102 -47 -138 -67 -234 -92 -365 -92 -150 -1 -229 34
-299 132 -13 17 -22 34 -20 35 25 22 141 74 247 110 156 53 243 94 292 134
l34 29 -33 17 c-33 18 -34 22 -16 71 4 11 -33 -22 -82 -72 -80 -83 -123 -112
-123 -83 0 5 16 39 36 75 20 35 34 70 32 76 -2 6 -24 -16 -49 -48 -93 -119
-201 -183 -324 -191 -100 -6 -112 4 -185 152 -98 200 -147 242 -298 256 -57 5
-104 16 -131 29 -95 49 -179 174 -188 280 -7 84 24 137 100 175 l58 29 -30 20
c-37 22 -38 37 -10 87 47 83 156 121 297 102 210 -28 681 -169 982 -294 177
-73 419 -194 513 -254 86 -56 171 -136 202 -189 87 -150 87 -362 0 -665 -54
-187 -116 -332 -325 -760 -270 -550 -333 -715 -379 -991 -53 -309 -49 -586 15
-1219 25 -247 37 -418 41 -602 6 -250 7 -257 27 -262 12 -3 23 -6 26 -6 3 0 4
19 3 43 -2 23 -10 245 -18 492 -8 248 -17 484 -20 525 -3 41 -12 167 -20 280
-33 459 -12 716 86 1020 45 140 99 268 222 525 371 781 444 974 478 1268 21
178 -13 335 -96 449 -83 113 -279 220 -660 361 -126 47 -267 101 -312 121
-174 74 -503 196 -596 220 -55 14 -138 28 -185 31 -84 6 -90 5 -172 -30z
m-290 -183 c0 -5 -5 -35 -11 -68 -7 -32 -19 -115 -28 -184 l-16 -125 -60 2
c-112 4 -195 65 -180 133 3 16 14 32 24 35 9 3 39 31 66 62 l49 56 -47 -6
c-65 -9 -62 12 5 43 122 55 198 75 198 52z"/>
<path d="M1634 5109 c-26 -13 -78 -93 -64 -97 13 -5 109 79 106 92 -3 14 -18
16 -42 5z"/>
<path d="M952 4491 c-40 -13 -49 -20 -40 -29 16 -16 40 -15 99 4 35 12 47 20
40 27 -17 17 -41 16 -99 -2z"/>
<path d="M1620 3669 c0 -7 51 -64 113 -128 63 -64 121 -127 130 -141 l17 -24
0 25 c0 38 -49 108 -116 164 -99 85 -144 117 -144 104z"/>
<path d="M1799 3298 c15 -29 46 -83 69 -120 22 -37 53 -91 68 -120 33 -62 45
-44 15 23 -19 40 -19 45 -4 56 14 11 13 17 -12 60 -42 72 -125 153 -159 153
-2 0 8 -24 23 -52z"/>
<path d="M1401 2826 c-2 -75 58 -248 117 -340 36 -57 43 -22 8 47 -26 54 -27
68 -1 47 9 -7 17 -11 19 -9 2 2 -29 69 -70 149 -67 133 -73 142 -73 106z"/>
<path d="M1951 2772 c6 -88 15 -118 42 -141 22 -18 50 47 41 96 -11 61 -56
133 -83 133 -4 0 -4 -40 0 -88z"/>
<path d="M1285 1075 c17 -277 16 -274 39 -281 11 -3 39 -23 61 -44 22 -20 48
-40 59 -44 12 -4 9 3 -11 22 -47 44 -69 98 -96 237 -14 72 -32 146 -41 165
-16 35 -16 34 -11 -55z"/>
<path d="M1300 735 c0 -3 9 -47 19 -98 11 -50 21 -103 23 -116 2 -20 12 -27
51 -37 57 -15 60 -6 12 47 -50 55 -48 115 2 81 25 -16 26 -16 18 8 -11 37 -52
88 -85 105 -31 16 -40 18 -40 10z"/>
</g>
</svg>
