<?xml version="1.0" standalone="no"?>
<!DOCTYPE svg PUBLIC "-//W3C//DTD SVG 20010904//EN"
 "http://www.w3.org/TR/2001/REC-SVG-20010904/DTD/svg10.dtd">
<svg version="1.0" xmlns="http://www.w3.org/2000/svg"
 width="400.000000pt" height="554.000000pt" viewBox="0 0 400.000000 554.000000"
 preserveAspectRatio="xMidYMid meet">

<g transform="translate(0.000000,554.000000) scale(0.100000,-0.100000)"
fill="#000000" stroke="none">
<path d="M2129 5429 c-122 -18 -425 -122 -714 -246 -44 -19 -183 -73 -310
-120 -381 -141 -577 -248 -660 -361 -83 -114 -117 -271 -96 -449 34 -294 107
-487 478 -1268 123 -257 177 -385 222 -525 98 -304 119 -561 86 -1020 -8 -113
-17 -239 -20 -280 -3 -41 -12 -277 -20 -525 -8 -247 -16 -469 -18 -493 -2 -39
0 -43 18 -38 11 3 23 6 26 6 3 0 9 116 12 258 4 184 16 355 41 602 64 633 68
910 15 1219 -46 276 -109 441 -379 991 -209 428 -271 573 -325 760 -87 303
-87 515 0 665 31 53 116 133 202 189 94 60 336 181 513 254 301 125 772 266
982 294 141 19 250 -19 297 -102 28 -50 27 -65 -10 -87 l-30 -20 58 -29 c76
-38 107 -91 100 -175 -9 -106 -93 -231 -188 -280 -27 -13 -74 -24 -131 -29
-151 -14 -200 -56 -298 -256 -73 -148 -85 -158 -185 -152 -123 8 -231 72 -324
191 -25 32 -47 54 -49 48 -2 -6 12 -41 32 -76 20 -36 36 -70 36 -75 0 -29 -43
0 -123 83 -49 50 -86 83 -82 72 18 -49 17 -53 -16 -71 l-33 -17 34 -29 c49
-40 136 -81 292 -134 106 -36 222 -88 247 -110 2 -1 -7 -18 -20 -35 -70 -98
-149 -133 -299 -132 -131 0 -227 25 -365 92 -55 27 -101 48 -102 47 -9 -8 63
-98 96 -120 93 -65 207 -86 461 -86 l168 0 11 -29 c7 -15 11 -50 9 -77 l-3
-49 -148 4 c-148 3 -149 3 -136 -17 19 -30 53 -43 158 -58 152 -21 158 -41 44
-149 -59 -57 -77 -85 -52 -85 6 0 30 17 54 38 23 20 98 77 166 126 446 322
553 420 751 685 154 206 250 306 331 346 50 24 66 27 118 22 144 -13 289 -143
325 -292 6 -28 5 -27 -25 13 -32 43 -114 102 -141 101 -10 0 -6 -6 10 -17 105
-72 170 -168 178 -268 11 -136 -83 -399 -245 -689 -82 -147 -105 -217 -104
-323 0 -46 3 -107 6 -135 9 -68 -8 -156 -55 -297 -37 -108 -58 -220 -41 -220
4 0 13 17 20 37 49 139 86 233 91 233 11 0 69 -145 90 -226 38 -148 44 -309
15 -439 -18 -78 -64 -203 -123 -330 -161 -350 -192 -431 -212 -560 -7 -42 -10
-185 -8 -362 3 -336 -9 -306 108 -275 l65 18 0 64 c0 36 -9 134 -19 219 -34
282 -23 326 154 596 102 156 147 243 177 343 26 90 24 378 -7 677 -35 340 -18
594 50 738 11 23 54 83 95 131 92 110 117 170 166 396 26 117 37 369 20 423
-7 19 -39 73 -72 119 -89 123 -113 169 -163 322 -26 77 -56 154 -67 172 -30
49 -82 90 -169 134 -102 51 -141 92 -180 190 -18 44 -43 90 -57 104 -29 29
-107 56 -253 87 -107 22 -158 39 -310 103 -90 38 -129 42 -241 25z m617 -213
c148 -52 214 -102 117 -89 l-47 6 49 -56 c27 -31 57 -59 66 -62 10 -3 21 -19
24 -35 15 -68 -68 -129 -180 -133 l-60 -2 -16 125 c-9 69 -21 152 -28 184 -6
33 -11 63 -11 68 0 12 43 10 86 -6z"/>
<path d="M2325 5111 c-6 -11 84 -100 103 -101 24 0 -28 79 -65 98 -26 14 -30
15 -38 3z"/>
<path d="M2950 4495 c-8 -10 2 -17 39 -29 60 -19 85 -20 99 -3 9 11 1 16 -41
27 -69 19 -85 20 -97 5z"/>
<path d="M2335 3648 c-152 -121 -215 -193 -215 -247 l0 -25 17 24 c9 14 67 77
130 141 62 64 113 121 113 127 0 16 1 16 -45 -20z"/>
<path d="M2195 3338 c-38 -21 -96 -83 -127 -136 -27 -47 -28 -55 -14 -65 14
-11 13 -16 -5 -56 -30 -67 -18 -85 15 -23 15 29 46 83 68 120 53 85 98 172 90
172 -4 0 -16 -6 -27 -12z"/>
<path d="M2023 2843 c-50 -44 -73 -135 -47 -188 13 -29 19 -33 31 -24 8 7 19
22 25 33 12 22 27 196 17 196 -3 0 -15 -8 -26 -17z"/>
<path d="M2523 2716 c-67 -133 -78 -167 -45 -134 23 23 21 2 -4 -49 -35 -70
-28 -104 9 -46 60 94 123 283 115 346 -2 23 -16 3 -75 -117z"/>
<path d="M2698 1115 c-9 -27 -27 -101 -38 -164 -23 -125 -46 -180 -93 -223
-20 -19 -23 -26 -11 -22 11 4 37 24 59 44 22 21 50 41 63 45 19 6 22 13 22 64
0 32 5 94 11 137 6 44 9 100 7 124 l-3 45 -17 -50z"/>
<path d="M2654 721 c-34 -21 -67 -63 -79 -101 -8 -24 -7 -24 18 -8 50 34 52
-26 2 -81 -48 -53 -45 -62 13 -47 38 10 48 17 50 37 2 13 12 66 23 116 10 51
19 95 19 98 0 9 -15 5 -46 -14z"/>
</g>
</svg>
