<?xml version="1.0" standalone="no"?>
<!DOCTYPE svg PUBLIC "-//W3C//DTD SVG 20010904//EN"
 "http://www.w3.org/TR/2001/REC-SVG-20010904/DTD/svg10.dtd">
<svg version="1.0" xmlns="http://www.w3.org/2000/svg"
 width="400.000000pt" height="700.000000pt" viewBox="0 0 400.000000 700.000000"
 preserveAspectRatio="xMidYMid meet">

<g transform="translate(0.000000,700.000000) scale(0.100000,-0.100000)"
fill="#000000" stroke="none">
<path d="M2520 6937 c-55 -26 -81 -51 -107 -105 l-28 -57 1 -290 1 -290 41
-205 c22 -113 43 -221 46 -241 13 -74 7 -217 -13 -333 -26 -148 -26 -189 0
-340 26 -154 17 -224 -39 -295 l-19 -23 -45 73 c-112 182 -271 492 -418 814
-126 276 -309 648 -379 770 -35 61 -106 175 -158 254 l-96 144 -67 -6 c-107
-9 -171 -44 -208 -112 -12 -22 -16 -54 -15 -120 1 -141 42 -269 180 -570 83
-179 314 -711 363 -835 75 -188 114 -350 108 -445 l-3 -50 -35 3 c-48 5 -100
37 -206 126 -90 77 -156 116 -195 116 -12 0 -46 -18 -74 -40 -99 -76 -136
-153 -171 -353 -32 -179 -61 -244 -145 -321 -33 -31 -64 -56 -70 -56 -5 0 -9
-28 -9 -62 0 -35 -11 -150 -24 -256 -32 -256 -30 -273 73 -490 115 -242 141
-344 226 -882 51 -323 89 -505 130 -620 15 -41 73 -170 130 -286 57 -116 113
-242 124 -279 27 -86 27 -183 2 -266 l-20 -62 27 -38 c15 -21 30 -39 33 -39 9
0 37 95 48 165 5 33 12 107 16 165 9 164 11 170 51 170 24 0 34 5 34 15 0 11
-11 15 -36 15 -21 0 -33 4 -29 10 3 6 28 10 54 10 34 0 56 6 72 20 l24 19 -61
-6 c-39 -3 -69 -1 -83 7 -20 10 -22 17 -17 53 4 23 11 202 16 397 9 336 23
504 51 627 7 29 15 50 19 48 4 -3 10 -44 14 -92 17 -217 69 -430 136 -563 32
-62 97 -156 153 -220 46 -54 47 -46 3 22 -208 326 -279 747 -185 1104 20 76
77 214 88 214 3 0 25 -34 49 -75 41 -70 91 -125 113 -125 6 0 1 12 -11 28 -29
36 -11 40 61 13 58 -22 74 -22 33 0 -46 24 -130 137 -216 291 -100 179 -200
336 -258 401 -32 36 -66 59 -138 93 -78 37 -112 61 -175 123 -304 294 -404
567 -234 641 35 15 52 17 105 9 149 -21 413 -154 652 -328 177 -129 236 -197
387 -448 125 -209 212 -293 328 -317 28 -6 27 -4 -20 37 -27 23 -76 68 -108
100 -57 56 -58 59 -41 78 11 12 30 19 55 19 84 0 93 25 12 35 -109 13 -109 32
3 147 48 49 84 91 81 94 -3 3 -38 -19 -79 -49 -125 -93 -166 -106 -187 -60
-25 55 -120 191 -185 266 -64 73 -192 181 -264 223 l-33 19 6 90 c4 49 8 104
9 120 5 55 -13 231 -34 336 -57 284 -148 524 -440 1159 -180 392 -201 443
-225 545 -20 86 -19 121 4 172 23 50 69 78 115 69 144 -27 367 -397 770 -1276
87 -190 212 -451 278 -580 l120 -235 -6 -57 c-5 -46 -3 -58 9 -58 26 0 78 83
110 175 31 92 36 139 47 455 17 495 16 519 -53 904 -55 312 -65 414 -50 533
21 175 91 278 187 278 25 0 49 -6 58 -15 21 -23 141 -399 197 -620 85 -336
130 -622 149 -935 31 -530 40 -612 104 -936 19 -96 40 -212 45 -259 24 -189 9
-493 -40 -815 -110 -729 -114 -793 -73 -1145 8 -69 21 -181 29 -250 28 -241
71 -878 101 -1497 12 -237 22 -363 28 -363 6 0 25 13 43 28 l32 27 -14 155
c-8 85 -21 304 -30 485 -17 362 -33 561 -70 880 -44 380 -55 527 -55 745 0
229 29 666 55 845 8 51 33 213 60 379 37 226 48 398 35 526 -10 102 -26 172
-112 490 l-42 155 -2 360 c-2 466 -8 511 -155 1076 -111 429 -130 493 -174
582 -58 119 -102 157 -180 156 -27 0 -61 -6 -75 -12z m-1238 -2161 c106 -60
194 -125 255 -188 53 -54 123 -160 123 -186 0 -28 -125 -5 -310 58 -96 33
-194 62 -217 66 -41 6 -42 8 -52 55 -17 77 1 142 55 195 24 24 49 44 56 44 8
0 48 -20 90 -44z m-294 -714 c111 -147 162 -250 162 -329 0 -36 -6 -50 -29
-74 -16 -16 -37 -29 -45 -29 -26 0 -19 -13 39 -70 103 -101 175 -242 175 -338
0 -42 -38 -128 -67 -154 -18 -17 -19 -16 -19 50 0 46 -7 82 -21 114 -23 50
-91 124 -135 147 -24 12 -29 11 -62 -14 -20 -15 -42 -25 -49 -22 -8 3 -34 43
-58 89 l-43 83 -1 135 c0 74 -4 179 -9 232 -7 73 -6 109 4 144 14 49 75 128
91 118 5 -3 35 -40 67 -82z m308 -417 c15 -14 33 -25 40 -25 8 0 14 -4 14 -10
0 -5 -15 -10 -34 -10 -42 0 -80 28 -71 53 9 23 19 22 51 -8z m-223 -346 c67
-55 98 -155 63 -201 -12 -16 -21 -11 -100 65 -47 45 -86 89 -86 98 0 13 64 69
80 69 3 0 22 -14 43 -31z"/>
<path d="M1395 6213 c-61 -24 -94 -47 -82 -59 11 -11 91 16 122 40 45 36 26
45 -40 19z"/>
<path d="M2573 6223 c-33 -3 -53 -9 -57 -18 -3 -8 0 -15 6 -15 6 0 4 -8 -5
-18 -21 -23 -13 -32 27 -32 36 0 146 30 146 40 0 4 -11 12 -25 18 -14 6 -25
16 -25 22 0 5 -3 9 -7 8 -5 -1 -31 -3 -60 -5z"/>
<path d="M2581 5531 c-32 -21 111 -36 154 -17 18 8 17 10 -10 16 -44 11 -128
11 -144 1z"/>
<path d="M2621 5466 c-11 -13 -11 -16 0 -17 32 -2 84 3 103 11 20 8 20 9 1 9
-11 1 -36 4 -55 7 -26 4 -40 2 -49 -10z"/>
<path d="M1765 5375 c-53 -22 -103 -61 -92 -72 7 -6 187 79 187 88 0 15 -33 9
-95 -16z"/>
<path d="M1043 4410 c-41 -25 -56 -54 -55 -107 0 -49 28 -111 72 -165 32 -39
143 -118 165 -118 8 0 27 24 44 53 34 59 101 213 101 230 0 7 -49 38 -109 70
-120 63 -163 71 -218 37z m177 -52 c90 -62 91 -203 1 -267 l-29 -21 -57 62
c-66 72 -115 144 -115 168 0 34 75 80 131 80 21 0 50 -9 69 -22z"/>
<path d="M1321 4118 c-15 -30 -17 -44 -9 -47 17 -6 48 37 48 65 0 36 -16 29
-39 -18z"/>
<path d="M1682 3956 c-22 -24 -45 -52 -51 -63 -6 -11 -19 -23 -30 -26 -17 -4
-17 -2 5 31 27 40 31 61 8 41 -28 -23 -85 -159 -67 -159 18 0 203 197 203 216
0 17 -34 -3 -68 -40z"/>
<path d="M2096 1132 c-2 -4 -7 -25 -11 -47 -12 -64 -17 -66 -116 -59 -93 7
-100 4 -80 -34 25 -47 42 -190 50 -416 8 -204 12 -251 31 -309 12 -38 23 -67
25 -65 5 5 -15 695 -21 751 l-6 47 36 0 c56 0 83 -17 90 -59 4 -20 11 -189 16
-376 5 -187 12 -360 16 -385 l8 -45 7 45 c15 90 21 475 11 615 -22 282 -36
368 -56 337z"/>
</g>
</svg>
